<svg width="116" height="26" viewBox="0 0 116 26" fill="none" xmlns="http://www.w3.org/2000/svg">
<path d="M7.47541 25.1047C3.69773 25.1047 0 22.3863 0 16.2501C0 10.0939 3.69773 7.41553 7.47541 7.41553C9.33427 7.41553 10.7934 7.89523 11.8327 8.57482L10.6934 11.0733C9.99386 10.5736 8.9545 10.2538 7.91514 10.2538C5.63654 10.2538 3.55781 12.0527 3.55781 16.2101C3.55781 20.3676 5.6965 22.2064 7.91514 22.2064C8.9545 22.2064 9.99386 21.8866 10.6934 21.3869L11.8327 23.9454C10.7534 24.6649 9.33427 25.1047 7.47541 25.1047Z" fill="#67748E" fill-opacity="0.7"/>
<path d="M20.4874 25.1047C15.6703 25.1047 13.012 21.287 13.012 16.2501C13.012 11.2132 15.6503 7.41553 20.4874 7.41553C25.3044 7.41553 27.9628 11.1932 27.9628 16.2501C27.9628 21.287 25.3044 25.1047 20.4874 25.1047ZM20.4874 10.1538C17.809 10.1538 16.4898 12.5524 16.4898 16.2101C16.4898 19.8679 17.809 22.2864 20.4874 22.2864C23.1657 22.2864 24.4849 19.8679 24.4849 16.2101C24.4849 12.5524 23.1657 10.1538 20.4874 10.1538Z" fill="#67748E" fill-opacity="0.7"/>
<path d="M32.6 4.67712C31.4607 4.67712 30.5413 3.79766 30.5413 2.71832C30.5413 1.63898 31.4607 0.759521 32.6 0.759521C33.7393 0.759521 34.6587 1.63898 34.6587 2.71832C34.6587 3.79766 33.7193 4.67712 32.6 4.67712ZM30.8611 7.75523H34.3389V24.7448H30.8611V7.75523Z" fill="#67748E" fill-opacity="0.7"/>
<path d="M47.9705 24.7449V13.4118C47.9705 11.4331 46.7712 10.1938 44.4127 10.1938C43.1534 10.1938 41.9941 10.4137 41.2946 10.6935V24.7649H37.8567V8.61479C39.5556 7.91522 41.7343 7.41553 44.3927 7.41553C49.1498 7.41553 51.4483 9.49425 51.4483 13.092V24.7649H47.9705" fill="#67748E" fill-opacity="0.7"/>
<path d="M60.5829 25.1046C58.3843 25.1046 56.2056 24.5649 54.8665 23.9053V0H58.3043V8.19497C59.1238 7.8152 60.443 7.4954 61.6223 7.4954C65.9996 7.4954 68.9778 10.6535 68.9778 15.8503C68.9778 22.2663 65.6598 25.1046 60.5829 25.1046ZM61.0227 10.1937C60.0833 10.1937 58.9639 10.4136 58.3043 10.7534V21.9065C58.804 22.1264 59.7834 22.3463 60.7628 22.3463C63.5012 22.3463 65.5199 20.4474 65.5199 16.1101C65.5399 12.3924 63.781 10.1937 61.0227 10.1937Z" fill="#67748E" fill-opacity="0.7"/>
<path d="M78.3318 25.1047C73.4548 25.1047 70.9763 23.1259 70.9763 19.7679C70.9763 15.0308 76.0132 14.1914 81.1501 13.9115V12.8322C81.1501 10.6935 79.7309 9.93398 77.5523 9.93398C75.9533 9.93398 73.9945 10.4337 72.8552 10.9733L71.9757 8.61479C73.3349 8.01516 75.6335 7.41553 77.9121 7.41553C81.9696 7.41553 84.448 8.99456 84.448 13.192V23.9054C83.2288 24.565 80.7303 25.1047 78.3318 25.1047ZM81.17 16.2101C77.6922 16.39 74.2343 16.6898 74.2343 19.708C74.2343 21.5069 75.6135 22.6062 78.2319 22.6062C79.3312 22.6062 80.6304 22.4263 81.17 22.1665V16.2101Z" fill="#67748E" fill-opacity="0.7"/>
<path d="M92.2035 25.1047C90.2247 25.1047 88.146 24.565 86.9067 23.9054L88.066 21.267C88.9455 21.8067 90.8043 22.3663 92.1035 22.3663C93.9624 22.3663 95.2016 21.4469 95.2016 20.0278C95.2016 18.4887 93.9024 17.8891 92.1835 17.2495C89.9049 16.39 87.3665 15.3507 87.3665 12.1726C87.3665 9.37432 89.5451 7.41553 93.3228 7.41553C95.3815 7.41553 97.0805 7.91522 98.2798 8.61479L97.2004 11.0133C96.4409 10.5336 94.9218 10.0139 93.7026 10.0139C91.9037 10.0139 90.9043 10.9534 90.9043 12.1926C90.9043 13.7316 92.1635 14.2713 93.8425 14.9109C96.201 15.7904 98.8194 16.7698 98.8194 20.0877C98.7994 23.1059 96.4609 25.1047 92.2035 25.1047Z" fill="#67748E" fill-opacity="0.7"/>
<path d="M115.569 16.1701L104.276 17.7492C104.616 20.8073 106.614 22.3463 109.473 22.3463C111.172 22.3463 113.01 21.9266 114.17 21.307L115.169 23.8854C113.85 24.585 111.571 25.0847 109.233 25.0847C103.876 25.0847 100.878 21.6468 100.878 16.2301C100.878 11.0333 103.776 7.39551 108.533 7.39551C112.951 7.39551 115.569 10.2937 115.569 14.8709C115.609 15.2907 115.609 15.7304 115.569 16.1701ZM108.513 9.93395C105.875 9.93395 104.136 11.9527 104.076 15.4905L112.311 14.3512C112.271 11.3931 110.772 9.93395 108.513 9.93395Z" fill="#67748E" fill-opacity="0.7"/>
</svg>
