<svg width="25" height="25" viewBox="0 0 25 25" fill="none" xmlns="http://www.w3.org/2000/svg">
<path d="M24.5959 0H13.3056C13.0826 0 12.9023 0.199554 12.9023 0.446429V12.0536C12.9023 12.2254 12.9915 12.3812 13.1306 12.4558C13.1866 12.4857 13.2463 12.5 13.3056 12.5C13.3955 12.5 13.4846 12.467 13.5576 12.4022L17.4794 8.92857H24.5959C24.8189 8.92857 24.9991 8.72902 24.9991 8.48214V0.446429C24.9991 0.199554 24.8189 0 24.5959 0Z" fill="#21D4FD" fill-opacity="0.6"/>
<path d="M6.85559 15.1786C8.85985 15.1786 10.4846 13.3797 10.4846 11.1607C10.4846 8.94171 8.85985 7.14285 6.85559 7.14285C4.85134 7.14285 3.22656 8.94171 3.22656 11.1607C3.22656 13.3797 4.85134 15.1786 6.85559 15.1786Z" fill="#2152FF"/>
<path d="M11.9315 17.9259C10.9048 17.4871 9.19073 16.9643 6.85484 16.9643C4.51895 16.9643 2.80484 17.4871 1.77823 17.9259C0.714516 18.3804 0 19.5478 0 20.8313V24.5536C0 24.8005 0.180242 25 0.403226 25H13.3065C13.5294 25 13.7097 24.8005 13.7097 24.5536V20.8313C13.7097 19.5478 12.9952 18.3804 11.9315 17.9259Z" fill="#2152FF"/>
</svg>
