<svg width="25" height="25" viewBox="0 0 25 25" fill="none" xmlns="http://www.w3.org/2000/svg">
<path d="M11.6435 3.71105C9.8378 3.31108 7.95171 3.49466 6.257 4.23535C4.56228 4.97604 3.14644 6.23559 2.21347 7.83253C2.16995 7.90704 2.15233 7.99386 2.16336 8.07943C2.17438 8.16501 2.21343 8.24453 2.27441 8.30558L4.81347 10.8446C6.6131 8.05193 8.93167 5.63032 11.6435 3.71105Z" fill="#21D4FD" fill-opacity="0.6"/>
<path d="M21.2879 13.3555C21.6879 15.1613 21.5043 17.0474 20.7636 18.7421C20.0229 20.4368 18.7634 21.8526 17.1664 22.7856C17.0919 22.8291 17.0051 22.8467 16.9195 22.8357C16.8339 22.8247 16.7544 22.7856 16.6934 22.7247L14.1543 20.1856C16.947 18.386 19.3686 16.0674 21.2879 13.3555Z" fill="#21D4FD" fill-opacity="0.6"/>
<path d="M6.22983 18.7696C5.71657 18.2576 5.0212 17.9701 4.29624 17.9701C3.57127 17.9701 2.8759 18.2576 2.36264 18.7696C1.10366 20.0282 0.794284 23.6431 0.780613 23.7962C0.776175 23.8501 0.78299 23.9044 0.800624 23.9555C0.818258 24.0067 0.846327 24.0536 0.883052 24.0934C0.919777 24.1331 0.964357 24.1648 1.01397 24.1864C1.06357 24.208 1.11713 24.219 1.17124 24.2189C1.18178 24.2189 1.19272 24.2189 1.20327 24.2189C1.35639 24.2064 4.97124 23.897 6.22983 22.638C6.74218 22.1247 7.02994 21.4291 7.02994 20.7038C7.02994 19.9786 6.74218 19.2829 6.22983 18.7696Z" fill="#2152FF"/>
<path d="M22.2719 9.21877C23.4155 6.6887 24.0756 3.96702 24.2184 1.19417C24.2215 1.13941 24.2131 1.0846 24.1936 1.03332C24.1742 0.982032 24.1441 0.935418 24.1055 0.89651C24.0666 0.857578 24.02 0.827213 23.9686 0.807367C23.9173 0.787522 23.8624 0.778634 23.8074 0.781276C21.0266 0.910624 18.2951 1.56289 15.7559 2.70393L22.2719 9.21877Z" fill="#2152FF"/>
<path d="M15.0102 3.06344C7.30315 6.92086 4.25471 14.2556 4.21565 14.3525C4.18711 14.4235 4.18008 14.5014 4.19543 14.5764C4.21078 14.6514 4.24783 14.7203 4.30198 14.7744L10.2246 20.6974C10.279 20.7519 10.3483 20.7891 10.4238 20.8043C10.4993 20.8195 10.5776 20.8121 10.6489 20.783C10.7453 20.7439 18.0446 17.6599 21.911 9.96266L15.0102 3.06344ZM13.6711 13.672C13.2076 13.672 12.7544 13.5346 12.369 13.277C11.9836 13.0195 11.6832 12.6535 11.5058 12.2252C11.3284 11.7969 11.282 11.3257 11.3724 10.871C11.4628 10.4164 11.6861 9.99878 12.0138 9.671C12.3416 9.34322 12.7592 9.12 13.2139 9.02957C13.6685 8.93913 14.1398 8.98555 14.568 9.16294C14.9963 9.34033 15.3623 9.64074 15.6199 10.0262C15.8774 10.4116 16.0149 10.8647 16.0149 11.3283C16.0149 11.9499 15.7679 12.546 15.3284 12.9856C14.8889 13.4251 14.2927 13.672 13.6711 13.672Z" fill="#2152FF"/>
</svg>
